# xmcd
#
# Track frame offsets:
#	150
#	19512
#	36772
#	56990
#	75498
#	94776
#	111444
#	130767
#	153301
#	172875
#	191884
#	214592
#	239146
#	273725
#	301153
#
# Disc length: 4254 seconds
#
# Revision: 0
# Processed by: cddbd v1.5.2PL0 Copyright (c) Steve Scherf et al.
# Submitted via: audiograbber 1.83.01
#
DISCID=cd109c0f
DTITLE=Don Lindo - Chica Mix
DYEAR=2003
DGENRE=
TTITLE0=Goldfrapp - Utopia
TTITLE1=Goldfrapp - Loveley Head
TTITLE2=Goldfrapp - Pilots
TTITLE3=Goldfrapp - Deer Stop
TTITLE4=Goldfrapp - Felt Mountain
TTITLE5=Lamb - What Sound
TTITLE6=Lamb - one
TTITLE7=Lamb - Heaven
TTITLE8=Lamb - Gabriel
TTITLE9=Lamb - Just Is
TTITLE10=Lamb - This could be heaven
TTITLE11=Lamb - Alphabeta
TTITLE12=Lamb - what sound (cosmos rmx)
TTITLE13=Thomas D. - Gebet an den Planet
TTITLE14=Thomas D. - Uns trennt das Leben
EXTD=
EXTT0=
EXTT1=
EXTT2=
EXTT3=
EXTT4=
EXTT5=
EXTT6=
EXTT7=
EXTT8=
EXTT9=
EXTT10=
EXTT11=
EXTT12=
EXTT13=
EXTT14=
PLAYORDER=
